<?xml version="1.0" encoding="UTF-8"?>
<svg xmlns="http://www.w3.org/2000/svg" xmlns:xlink="http://www.w3.org/1999/xlink" width="504px" height="504px" viewBox="0 0 504 504" version="1.1">
<g id="surface1">
<path style=" stroke:none;fill-rule:nonzero;fill:rgb(97.647059%,96.078432%,93.333334%);fill-opacity:1;" d="M 0 0 C 166.320312 0 332.640625 0 504 0 C 504 166.320312 504 332.640625 504 504 C 337.679688 504 171.359375 504 0 504 C 0 337.679688 0 171.359375 0 0 Z M 0 0 "/>
<path style=" stroke:none;fill-rule:nonzero;fill:rgb(9.019608%,12.156863%,14.117648%);fill-opacity:1;" d="M 157.03125 126.859375 C 157.363281 126.859375 157.699219 126.855469 158.042969 126.855469 C 159.15625 126.851562 160.265625 126.851562 161.378906 126.855469 C 162.1875 126.855469 162.996094 126.851562 163.804688 126.851562 C 166.019531 126.84375 168.234375 126.847656 170.453125 126.847656 C 172.84375 126.851562 175.234375 126.84375 177.625 126.839844 C 182.308594 126.835938 186.992188 126.835938 191.675781 126.835938 C 195.484375 126.835938 199.289062 126.835938 203.097656 126.832031 C 203.640625 126.832031 204.179688 126.832031 204.738281 126.832031 C 205.839844 126.832031 206.941406 126.832031 208.042969 126.832031 C 218.363281 126.824219 228.6875 126.828125 239.011719 126.828125 C 248.453125 126.832031 257.898438 126.828125 267.339844 126.816406 C 277.035156 126.808594 286.734375 126.804688 296.429688 126.804688 C 301.871094 126.804688 307.316406 126.804688 312.761719 126.796875 C 317.394531 126.792969 322.027344 126.792969 326.664062 126.796875 C 329.027344 126.800781 331.390625 126.800781 333.753906 126.796875 C 335.921875 126.789062 338.085938 126.792969 340.253906 126.796875 C 341.035156 126.800781 341.816406 126.796875 342.597656 126.792969 C 347.957031 126.769531 352.5 127.230469 357.234375 129.90625 C 357.664062 130.144531 358.09375 130.382812 358.539062 130.628906 C 363.394531 133.679688 366.839844 138.28125 368.648438 143.71875 C 369.175781 146.613281 369.214844 149.4375 369.214844 152.375 C 369.214844 152.894531 369.214844 153.414062 369.21875 153.949219 C 369.222656 155.683594 369.226562 157.417969 369.226562 159.15625 C 369.230469 160.402344 369.234375 161.648438 369.238281 162.894531 C 369.246094 166.628906 369.253906 170.367188 369.257812 174.101562 C 369.257812 175.863281 369.261719 177.625 369.265625 179.390625 C 369.273438 185.253906 369.28125 191.113281 369.28125 196.976562 C 369.285156 198.496094 369.285156 200.015625 369.285156 201.535156 C 369.285156 201.914062 369.285156 202.292969 369.285156 202.679688 C 369.289062 208.796875 369.304688 214.910156 369.320312 221.023438 C 369.335938 227.308594 369.34375 233.597656 369.347656 239.882812 C 369.347656 243.410156 369.351562 246.933594 369.363281 250.460938 C 369.375 253.78125 369.378906 257.097656 369.371094 260.417969 C 369.371094 261.632812 369.375 262.847656 369.382812 264.0625 C 369.429688 273.027344 368.980469 280.675781 362.773438 287.746094 C 361.089844 289.320312 359.179688 290.421875 357.175781 291.527344 C 356.878906 291.695312 356.578125 291.863281 356.273438 292.03125 C 351.339844 294.609375 346.035156 294.472656 340.601562 294.460938 C 339.808594 294.460938 339.011719 294.464844 338.21875 294.464844 C 336.042969 294.472656 333.867188 294.472656 331.695312 294.472656 C 329.34375 294.472656 326.996094 294.476562 324.648438 294.480469 C 320.050781 294.488281 315.449219 294.492188 310.851562 294.492188 C 307.113281 294.492188 303.375 294.496094 299.632812 294.5 C 289.023438 294.507812 278.414062 294.511719 267.804688 294.511719 C 266.945312 294.511719 266.945312 294.511719 266.070312 294.511719 C 265.5 294.511719 264.925781 294.511719 264.335938 294.511719 C 255.066406 294.511719 245.792969 294.519531 236.519531 294.535156 C 226.992188 294.546875 217.460938 294.554688 207.933594 294.554688 C 202.585938 294.554688 197.238281 294.554688 191.894531 294.566406 C 187.339844 294.574219 182.789062 294.578125 178.234375 294.570312 C 175.914062 294.566406 173.59375 294.566406 171.273438 294.574219 C 169.144531 294.582031 167.015625 294.582031 164.886719 294.574219 C 164.121094 294.574219 163.355469 294.574219 162.589844 294.578125 C 154.167969 294.636719 146.972656 293 140.640625 287.128906 C 138.195312 284.585938 136.667969 281.835938 135.351562 278.578125 C 135.085938 277.925781 135.085938 277.925781 134.8125 277.261719 C 133.730469 273.285156 133.800781 269.054688 133.8125 264.957031 C 133.8125 264.457031 133.8125 263.957031 133.808594 263.441406 C 133.808594 261.78125 133.808594 260.121094 133.8125 258.460938 C 133.8125 257.265625 133.808594 256.070312 133.808594 254.875 C 133.808594 251.972656 133.808594 249.070312 133.808594 246.167969 C 133.808594 243.808594 133.808594 241.449219 133.808594 239.085938 C 133.808594 238.75 133.808594 238.414062 133.808594 238.066406 C 133.808594 237.382812 133.808594 236.699219 133.808594 236.015625 C 133.808594 229.609375 133.808594 223.207031 133.8125 216.800781 C 133.8125 211.3125 133.8125 205.824219 133.8125 200.335938 C 133.808594 193.953125 133.808594 187.566406 133.808594 181.183594 C 133.808594 180.503906 133.808594 179.820312 133.808594 179.140625 C 133.808594 178.804688 133.808594 178.46875 133.808594 178.125 C 133.808594 175.769531 133.808594 173.414062 133.808594 171.058594 C 133.804688 167.882812 133.808594 164.710938 133.808594 161.539062 C 133.8125 160.375 133.8125 159.210938 133.808594 158.046875 C 133.808594 156.457031 133.808594 154.867188 133.8125 153.277344 C 133.8125 152.820312 133.808594 152.363281 133.808594 151.890625 C 133.828125 145.222656 135.152344 139.148438 139.917969 134.128906 C 144.753906 129.867188 150.488281 126.863281 157.03125 126.859375 Z M 157.03125 126.859375 "/>
<path style=" stroke:none;fill-rule:nonzero;fill:rgb(83.92157%,69.803923%,49.803922%);fill-opacity:1;" d="M 250.769531 304.105469 C 251.296875 304.105469 251.824219 304.105469 252.367188 304.105469 C 253.160156 304.109375 253.160156 304.109375 253.96875 304.109375 C 254.511719 304.109375 255.054688 304.105469 255.617188 304.105469 C 256.398438 304.105469 256.398438 304.105469 257.199219 304.105469 C 257.667969 304.105469 258.132812 304.109375 258.617188 304.109375 C 259.875 304.171875 259.875 304.171875 261.84375 304.664062 C 261.84375 317.007812 261.84375 329.351562 261.84375 342.070312 C 276.785156 342.070312 291.730469 342.070312 307.125 342.070312 C 305.175781 335.410156 303.226562 328.75 301.21875 321.890625 C 297.28125 307.714844 297.28125 307.714844 297.28125 304.664062 C 301.113281 304.171875 304.914062 304.082031 308.773438 304.082031 C 309.777344 304.078125 310.78125 304.070312 311.789062 304.0625 C 312.742188 304.058594 312.742188 304.058594 313.71875 304.058594 C 314.585938 304.054688 314.585938 304.054688 315.46875 304.050781 C 316.949219 304.171875 317.757812 304.265625 318.9375 305.15625 C 319.445312 306.199219 319.445312 306.199219 319.8125 307.488281 C 319.953125 307.964844 320.09375 308.4375 320.238281 308.929688 C 320.378906 309.429688 320.515625 309.929688 320.660156 310.445312 C 320.800781 310.925781 320.9375 311.402344 321.082031 311.894531 C 321.523438 313.421875 321.953125 314.949219 322.382812 316.476562 C 323.402344 320.101562 324.449219 323.714844 325.550781 327.316406 C 325.652344 327.652344 325.757812 327.988281 325.863281 328.335938 C 326.285156 329.707031 326.707031 331.082031 327.128906 332.453125 C 328.386719 336.515625 329.546875 340.582031 330.558594 344.714844 C 331.234375 347.476562 332 350.203125 332.8125 352.929688 C 333.109375 353.9375 333.40625 354.949219 333.703125 355.957031 C 333.9375 356.757812 333.9375 356.757812 334.179688 357.570312 C 335.03125 360.460938 335.867188 363.351562 336.707031 366.242188 C 336.984375 367.203125 337.265625 368.164062 337.542969 369.125 C 338.589844 372.71875 339.621094 376.320312 340.648438 379.921875 C 342.046875 384.808594 343.503906 389.679688 344.960938 394.550781 C 345.082031 394.953125 345.203125 395.355469 345.328125 395.769531 C 346.015625 398.078125 346.726562 400.378906 347.453125 402.675781 C 347.613281 403.183594 347.769531 403.6875 347.933594 404.210938 C 348.242188 405.191406 348.554688 406.171875 348.871094 407.148438 C 350.148438 411.234375 350.308594 414.230469 348.601562 418.210938 C 347.359375 420.460938 345.417969 421.8125 343.054688 422.789062 C 339.425781 423.234375 336.191406 423.054688 333.210938 420.820312 C 327.949219 416.445312 326.960938 408.035156 325.3125 401.777344 C 324.304688 397.96875 323.234375 394.179688 322.136719 390.398438 C 321.996094 389.910156 321.996094 389.910156 321.851562 389.414062 C 320.683594 385.394531 319.453125 381.40625 318.105469 377.445312 C 316.425781 372.429688 314.976562 367.335938 313.523438 362.25 C 296.46875 362.085938 279.414062 361.925781 261.84375 361.757812 C 262.007812 366.957031 262.167969 372.152344 262.335938 377.507812 C 262.390625 381.214844 262.445312 384.917969 262.453125 388.628906 C 262.457031 389.644531 262.464844 390.664062 262.472656 391.679688 C 262.488281 393.199219 262.496094 394.714844 262.496094 396.230469 C 262.503906 396.683594 262.507812 397.132812 262.515625 397.601562 C 262.503906 400.5625 262.027344 402.59375 260.15625 404.984375 C 259.921875 405.214844 259.6875 405.449219 259.445312 405.6875 C 259.210938 405.921875 258.980469 406.15625 258.742188 406.402344 C 256.570312 408.0625 254.460938 408.167969 251.785156 408.175781 C 251.15625 408.183594 250.527344 408.195312 249.878906 408.203125 C 246.707031 407.890625 244.675781 406.496094 242.648438 404.085938 C 241.378906 401.597656 240.960938 399.589844 240.996094 396.785156 C 240.996094 396.417969 240.996094 396.050781 240.992188 395.667969 C 240.992188 394.460938 241 393.253906 241.011719 392.046875 C 241.011719 391.207031 241.011719 390.363281 241.011719 389.519531 C 241.015625 387.761719 241.023438 386.003906 241.035156 384.242188 C 241.046875 381.984375 241.054688 379.726562 241.054688 377.46875 C 241.058594 375.730469 241.0625 373.996094 241.066406 372.257812 C 241.070312 371.425781 241.074219 370.59375 241.074219 369.757812 C 241.078125 368.597656 241.085938 367.4375 241.09375 366.277344 C 241.09375 365.933594 241.09375 365.585938 241.09375 365.230469 C 241.117188 362.855469 241.117188 362.855469 241.664062 361.757812 C 224.449219 361.757812 207.230469 361.757812 189.492188 361.757812 C 189.328125 362.894531 189.167969 364.03125 189 365.203125 C 188.558594 367.097656 188.023438 368.960938 187.492188 370.832031 C 187.261719 371.65625 187.261719 371.65625 187.027344 372.492188 C 185.902344 376.433594 184.632812 380.304688 183.296875 384.175781 C 181.128906 390.585938 179.34375 397.117188 177.511719 403.628906 C 173.3125 418.484375 173.3125 418.484375 168.328125 421.804688 C 165.886719 423.050781 163.144531 423.238281 160.453125 422.789062 C 157.386719 421.496094 155.421875 419.347656 153.5625 416.65625 C 151.980469 412.625 153.828125 408.414062 155.035156 404.511719 C 155.238281 403.828125 155.445312 403.140625 155.652344 402.457031 C 156.199219 400.636719 156.753906 398.816406 157.3125 396.996094 C 157.882812 395.117188 158.449219 393.238281 159.019531 391.359375 C 159.800781 388.761719 160.589844 386.164062 161.378906 383.566406 C 162.492188 379.890625 163.597656 376.207031 164.6875 372.523438 C 164.8125 372.101562 164.9375 371.679688 165.0625 371.242188 C 165.507812 369.742188 165.949219 368.242188 166.390625 366.738281 C 167.402344 363.296875 168.449219 359.875 169.597656 356.472656 C 170.628906 353.417969 171.542969 350.351562 172.390625 347.238281 C 173.65625 342.644531 174.960938 338.0625 176.296875 333.488281 C 179.09375 323.890625 181.828125 314.277344 184.570312 304.664062 C 191.71875 304.664062 198.863281 304.664062 206.226562 304.664062 C 205.671875 309.097656 205.671875 309.097656 205.160156 311.046875 C 204.992188 311.703125 204.992188 311.703125 204.816406 312.371094 C 204.691406 312.832031 204.570312 313.292969 204.441406 313.769531 C 204.246094 314.503906 204.246094 314.503906 204.050781 315.257812 C 202.574219 320.777344 200.964844 326.257812 199.335938 331.734375 C 199.050781 332.699219 198.765625 333.664062 198.476562 334.632812 C 198.210938 335.53125 197.941406 336.433594 197.675781 337.332031 C 197.550781 337.75 197.429688 338.164062 197.300781 338.59375 C 196.441406 341.460938 196.441406 341.460938 195.890625 342.5625 C 210.996094 342.5625 226.101562 342.5625 241.664062 342.5625 C 241.664062 330.054688 241.664062 317.550781 241.664062 304.664062 C 248.320312 304.109375 248.320312 304.109375 250.769531 304.105469 Z M 250.769531 304.105469 "/>
<path style=" stroke:none;fill-rule:nonzero;fill:rgb(95.294118%,60.392159%,38.82353%);fill-opacity:1;" d="M 167.867188 154.421875 C 168.472656 154.417969 169.074219 154.414062 169.695312 154.410156 C 170.363281 154.410156 171.03125 154.414062 171.699219 154.414062 C 172.410156 154.414062 173.121094 154.410156 173.832031 154.410156 C 175.785156 154.402344 177.734375 154.402344 179.6875 154.402344 C 181.796875 154.402344 183.902344 154.398438 186.007812 154.394531 C 190.132812 154.386719 194.257812 154.382812 198.382812 154.382812 C 201.738281 154.382812 205.089844 154.378906 208.445312 154.375 C 217.945312 154.367188 227.449219 154.363281 236.953125 154.363281 C 237.722656 154.363281 237.722656 154.363281 238.507812 154.363281 C 239.277344 154.363281 239.277344 154.363281 240.0625 154.363281 C 248.378906 154.363281 256.695312 154.355469 265.011719 154.339844 C 273.550781 154.328125 282.089844 154.320312 290.625 154.320312 C 295.417969 154.320312 300.214844 154.320312 305.007812 154.308594 C 309.089844 154.300781 313.171875 154.296875 317.253906 154.304688 C 319.335938 154.308594 321.417969 154.308594 323.5 154.300781 C 325.40625 154.292969 327.3125 154.292969 329.21875 154.300781 C 329.910156 154.300781 330.597656 154.300781 331.289062 154.296875 C 337.6875 154.246094 337.6875 154.246094 340.101562 156.515625 C 341.21875 157.9375 341.421875 159.597656 341.355469 161.394531 C 340.894531 163.152344 339.816406 164.015625 338.441406 165.144531 C 335.867188 166.582031 333.042969 166.332031 330.171875 166.289062 C 329.460938 166.289062 328.75 166.292969 328.039062 166.300781 C 326.09375 166.308594 324.148438 166.296875 322.207031 166.28125 C 320.105469 166.269531 318.003906 166.277344 315.90625 166.28125 C 311.792969 166.285156 307.683594 166.273438 303.574219 166.253906 C 298.785156 166.234375 294 166.230469 289.214844 166.230469 C 280.675781 166.226562 272.136719 166.210938 263.597656 166.179688 C 255.308594 166.152344 247.023438 166.136719 238.734375 166.128906 C 238.222656 166.128906 237.710938 166.128906 237.1875 166.128906 C 236.15625 166.128906 235.128906 166.128906 234.101562 166.128906 C 233.339844 166.128906 233.339844 166.128906 232.5625 166.125 C 231.804688 166.125 231.804688 166.125 231.027344 166.125 C 223.132812 166.121094 215.234375 166.105469 207.339844 166.09375 C 204.953125 166.085938 202.566406 166.082031 200.179688 166.082031 C 195.164062 166.074219 190.148438 166.0625 185.128906 166.046875 C 183.054688 166.039062 180.980469 166.03125 178.90625 166.03125 C 177.007812 166.027344 175.109375 166.023438 173.210938 166.011719 C 172.523438 166.011719 171.835938 166.007812 171.148438 166.007812 C 170.214844 166.011719 169.28125 166.003906 168.347656 165.996094 C 167.832031 165.996094 167.3125 165.996094 166.777344 165.992188 C 164.5625 165.792969 163.296875 165.308594 161.804688 163.652344 C 160.5 161.789062 160.234375 160.777344 160.453125 158.484375 C 161.296875 156.859375 161.886719 155.804688 163.535156 154.960938 C 165.050781 154.496094 166.285156 154.421875 167.867188 154.421875 Z M 167.867188 154.421875 "/>
<path style=" stroke:none;fill-rule:nonzero;fill:rgb(93.333334%,70.588237%,27.450982%);fill-opacity:1;" d="M 186.539062 183.585938 C 190.480469 185.972656 193.671875 189.675781 196.882812 192.941406 C 198.253906 194.328125 199.679688 195.613281 201.164062 196.875 C 202.804688 198.3125 204.390625 199.8125 205.980469 201.304688 C 210.328125 205.40625 210.328125 205.40625 214.933594 209.210938 C 216.730469 210.714844 218.875 212.644531 219.125 215.082031 C 219.136719 215.644531 219.136719 215.644531 219.148438 216.222656 C 219.160156 216.597656 219.171875 216.972656 219.183594 217.355469 C 218.828125 219.957031 217.144531 221.488281 215.238281 223.144531 C 214.800781 223.53125 214.363281 223.914062 213.910156 224.3125 C 213.484375 224.679688 213.0625 225.042969 212.625 225.421875 C 211.980469 225.984375 211.332031 226.550781 210.6875 227.113281 C 210.371094 227.386719 210.058594 227.660156 209.734375 227.941406 C 207.996094 229.476562 206.292969 231.042969 204.578125 232.605469 C 203.507812 233.578125 202.425781 234.535156 201.335938 235.480469 C 199.65625 236.9375 198.019531 238.4375 196.382812 239.941406 C 187.753906 247.871094 187.753906 247.871094 184.601562 248.371094 C 182.476562 248.273438 181.324219 247.269531 179.820312 245.851562 C 178.769531 244.675781 178.664062 244.113281 178.539062 242.496094 C 178.792969 238.78125 181.460938 236.675781 184.078125 234.28125 C 185.386719 233.1875 186.714844 232.113281 188.046875 231.046875 C 189.589844 229.769531 191.070312 228.441406 192.539062 227.082031 C 192.914062 226.734375 192.914062 226.734375 193.296875 226.382812 C 193.660156 226.042969 193.660156 226.042969 194.035156 225.699219 C 197.488281 222.507812 201.097656 219.523438 204.75 216.5625 C 202.695312 214.464844 200.648438 212.378906 198.414062 210.472656 C 196.753906 209.050781 195.210938 207.535156 193.675781 205.980469 C 191.910156 204.195312 190.109375 202.488281 188.203125 200.855469 C 186.496094 199.359375 184.824219 197.828125 183.15625 196.289062 C 182.828125 195.992188 182.5 195.691406 182.160156 195.386719 C 181.695312 194.953125 181.695312 194.953125 181.222656 194.515625 C 180.941406 194.257812 180.664062 194.003906 180.375 193.738281 C 179.070312 192.300781 178.6875 191.210938 178.511719 189.277344 C 178.710938 186.976562 179.429688 185.855469 180.941406 184.171875 C 182.875 183.203125 184.4375 183.046875 186.539062 183.585938 Z M 186.539062 183.585938 "/>
<path style=" stroke:none;fill-rule:nonzero;fill:rgb(84.313726%,69.803923%,49.803922%);fill-opacity:1;" d="M 258.828125 82.378906 C 262.695312 85.335938 263.878906 89.230469 264.519531 93.882812 C 264.613281 94.535156 264.613281 94.535156 264.707031 95.195312 C 265.640625 102.152344 266.160156 109.164062 266.765625 116.15625 C 256.695312 116.15625 246.625 116.15625 236.25 116.15625 C 236.25 110.617188 236.25 110.617188 236.488281 108.703125 C 236.570312 108.058594 236.570312 108.058594 236.648438 107.402344 C 236.707031 106.953125 236.765625 106.507812 236.828125 106.046875 C 236.886719 105.570312 236.949219 105.097656 237.011719 104.605469 C 237.140625 103.609375 237.269531 102.613281 237.402344 101.617188 C 237.601562 100.101562 237.792969 98.582031 237.980469 97.066406 C 238.109375 96.089844 238.234375 95.117188 238.363281 94.140625 C 238.417969 93.695312 238.472656 93.246094 238.53125 92.78125 C 239.042969 89.054688 240.113281 85.730469 243.078125 83.242188 C 243.390625 82.96875 243.707031 82.695312 244.027344 82.414062 C 248.34375 79.574219 254.460938 79.851562 258.828125 82.378906 Z M 258.828125 82.378906 "/>
<path style=" stroke:none;fill-rule:nonzero;fill:rgb(95.294118%,72.941178%,32.549021%);fill-opacity:1;" d="M 222.753906 239.542969 C 223.082031 239.539062 223.40625 239.535156 223.742188 239.53125 C 224.824219 239.519531 225.90625 239.515625 226.984375 239.511719 C 227.738281 239.507812 228.488281 239.503906 229.242188 239.5 C 230.820312 239.492188 232.398438 239.488281 233.972656 239.484375 C 235.992188 239.484375 238.007812 239.464844 240.027344 239.441406 C 241.582031 239.425781 243.136719 239.425781 244.691406 239.421875 C 245.433594 239.421875 246.175781 239.414062 246.921875 239.40625 C 253.464844 239.320312 253.464844 239.320312 255.402344 240.882812 C 256.964844 242.820312 257.089844 244.027344 257.058594 246.460938 C 256.851562 248.136719 256.195312 248.921875 254.953125 250.03125 C 253.019531 250.992188 251.421875 251.144531 249.277344 251.160156 C 248.636719 251.164062 247.996094 251.171875 247.335938 251.175781 C 246.640625 251.179688 245.945312 251.179688 245.25 251.179688 C 244.53125 251.183594 243.8125 251.1875 243.097656 251.191406 C 241.59375 251.195312 240.09375 251.199219 238.589844 251.199219 C 236.667969 251.199219 234.75 251.210938 232.828125 251.226562 C 231.347656 251.238281 229.867188 251.242188 228.382812 251.242188 C 227.675781 251.242188 226.96875 251.246094 226.261719 251.253906 C 225.269531 251.261719 224.277344 251.257812 223.285156 251.253906 C 222.722656 251.257812 222.160156 251.257812 221.578125 251.257812 C 219.648438 250.960938 218.578125 250.253906 217.054688 249.046875 C 215.914062 247.128906 215.835938 245.339844 216.070312 243.140625 C 217.902344 240.300781 219.441406 239.574219 222.753906 239.542969 Z M 222.753906 239.542969 "/>
<path style=" stroke:none;fill-rule:nonzero;fill:rgb(99.215686%,81.176472%,41.960785%);fill-opacity:1;" d="M 167.554688 154.425781 C 168.085938 154.421875 168.617188 154.421875 169.167969 154.417969 C 169.75 154.421875 170.332031 154.425781 170.933594 154.429688 C 171.554688 154.425781 172.175781 154.425781 172.816406 154.425781 C 174.539062 154.421875 176.261719 154.425781 177.984375 154.433594 C 179.84375 154.4375 181.703125 154.433594 183.558594 154.433594 C 186.777344 154.433594 190 154.4375 193.21875 154.441406 C 197.871094 154.449219 202.527344 154.453125 207.179688 154.453125 C 214.734375 154.457031 222.285156 154.464844 229.835938 154.472656 C 237.171875 154.480469 244.507812 154.488281 251.84375 154.492188 C 252.523438 154.492188 252.523438 154.492188 253.214844 154.492188 C 255.484375 154.496094 257.75 154.496094 260.019531 154.496094 C 278.839844 154.507812 297.65625 154.523438 316.476562 154.546875 C 316.476562 154.710938 316.476562 154.871094 316.476562 155.039062 C 306.078125 155.179688 295.683594 155.316406 285.285156 155.449219 C 280.457031 155.511719 275.628906 155.574219 270.800781 155.640625 C 266.589844 155.695312 262.378906 155.753906 258.167969 155.804688 C 255.941406 155.832031 253.714844 155.863281 251.488281 155.894531 C 249.386719 155.921875 247.285156 155.949219 245.179688 155.972656 C 244.414062 155.984375 243.648438 155.996094 242.882812 156.007812 C 238.019531 156.078125 233.226562 155.929688 228.375 155.53125 C 228.210938 155.855469 228.050781 156.179688 227.882812 156.515625 C 227.882812 156.191406 227.882812 155.867188 227.882812 155.53125 C 227.316406 155.546875 226.753906 155.5625 226.171875 155.578125 C 223.339844 155.648438 220.503906 155.714844 217.667969 155.777344 C 217.132812 155.789062 216.597656 155.800781 216.046875 155.816406 C 208.757812 155.980469 201.476562 156.035156 194.1875 155.980469 C 192.910156 155.96875 191.632812 155.960938 190.355469 155.953125 C 189.507812 155.949219 188.65625 155.941406 187.804688 155.9375 C 187.386719 155.933594 186.964844 155.933594 186.53125 155.929688 C 184 155.914062 181.472656 155.882812 178.941406 155.847656 C 177.34375 155.828125 175.746094 155.816406 174.148438 155.808594 C 173.398438 155.804688 172.652344 155.792969 171.902344 155.777344 C 167.347656 155.566406 167.347656 155.566406 163.203125 157.164062 C 161.78125 158.636719 161.484375 159.414062 161.4375 161.4375 C 161.761719 161.4375 162.085938 161.4375 162.421875 161.4375 C 162.421875 162.085938 162.421875 162.738281 162.421875 163.40625 C 163.234375 163.40625 164.046875 163.40625 164.882812 163.40625 C 164.882812 163.894531 164.882812 164.378906 164.882812 164.882812 C 196.394531 164.882812 227.902344 164.882812 260.367188 164.882812 C 260.367188 165.046875 260.367188 165.207031 260.367188 165.375 C 247.769531 165.445312 235.167969 165.496094 222.566406 165.527344 C 216.71875 165.542969 210.867188 165.5625 205.019531 165.597656 C 199.917969 165.628906 194.820312 165.644531 189.722656 165.652344 C 187.023438 165.65625 184.324219 165.664062 181.625 165.6875 C 179.082031 165.707031 176.542969 165.714844 174 165.710938 C 173.066406 165.710938 172.136719 165.714844 171.203125 165.726562 C 169.929688 165.742188 168.65625 165.738281 167.382812 165.730469 C 167.011719 165.738281 166.644531 165.746094 166.261719 165.757812 C 164.851562 165.730469 163.738281 165.652344 162.632812 164.726562 C 161.371094 163.25 160.519531 162.007812 160.300781 160.085938 C 160.496094 158.046875 161.113281 157.085938 162.421875 155.53125 C 164.179688 154.652344 165.601562 154.425781 167.554688 154.425781 Z M 167.554688 154.425781 "/>
<path style=" stroke:none;fill-rule:nonzero;fill:rgb(99.215686%,72.941178%,40.000001%);fill-opacity:1;" d="M 270.34375 154.511719 C 275.394531 154.515625 280.449219 154.519531 285.5 154.523438 C 295.824219 154.527344 306.152344 154.535156 316.476562 154.546875 C 316.476562 154.710938 316.476562 154.871094 316.476562 155.039062 C 306.078125 155.179688 295.683594 155.316406 285.285156 155.449219 C 280.457031 155.511719 275.628906 155.574219 270.800781 155.640625 C 266.589844 155.695312 262.378906 155.753906 258.167969 155.804688 C 255.941406 155.832031 253.714844 155.863281 251.488281 155.894531 C 249.386719 155.921875 247.285156 155.949219 245.179688 155.972656 C 244.414062 155.984375 243.648438 155.996094 242.882812 156.007812 C 238.019531 156.078125 233.226562 155.929688 228.375 155.53125 C 228.210938 155.855469 228.050781 156.179688 227.882812 156.515625 C 227.882812 156.191406 227.882812 155.867188 227.882812 155.53125 C 227.59375 155.539062 227.300781 155.542969 227.003906 155.550781 C 223.917969 155.613281 220.835938 155.679688 217.753906 155.742188 C 216.609375 155.765625 215.464844 155.789062 214.324219 155.8125 C 210.476562 155.894531 206.628906 155.964844 202.78125 156.023438 C 202.25 156.03125 201.714844 156.039062 201.167969 156.050781 C 199.65625 156.074219 198.144531 156.085938 196.632812 156.101562 C 196.179688 156.109375 195.726562 156.113281 195.261719 156.121094 C 194.636719 156.125 194.636719 156.125 194 156.128906 C 193.457031 156.132812 193.457031 156.132812 192.90625 156.140625 C 191.953125 156.023438 191.953125 156.023438 190.476562 155.039062 C 217.101562 154.601562 243.71875 154.480469 270.34375 154.511719 Z M 270.34375 154.511719 "/>
<path style=" stroke:none;fill-rule:nonzero;fill:rgb(98.039216%,55.29412%,39.607844%);fill-opacity:1;" d="M 318.03125 154.519531 C 320.929688 154.46875 323.828125 154.429688 326.726562 154.40625 C 327.621094 154.398438 328.515625 154.386719 329.410156 154.371094 C 330.65625 154.351562 331.902344 154.34375 333.152344 154.335938 C 333.515625 154.328125 333.878906 154.320312 334.253906 154.3125 C 336.761719 154.320312 338.164062 154.949219 340.101562 156.515625 C 341.492188 158.285156 341.289062 160.273438 341.085938 162.421875 C 340.101562 163.40625 340.101562 163.40625 339.117188 163.898438 C 339.199219 163.621094 339.277344 163.34375 339.363281 163.058594 C 339.625 161.867188 339.65625 160.8125 339.640625 159.589844 C 339.636719 159.199219 339.632812 158.804688 339.625 158.398438 C 339.621094 158.101562 339.617188 157.804688 339.609375 157.5 C 339.285156 157.5 338.960938 157.5 338.625 157.5 C 338.625 157.175781 338.625 156.851562 338.625 156.515625 C 338.300781 156.515625 337.976562 156.515625 337.640625 156.515625 C 337.640625 156.191406 337.640625 155.867188 337.640625 155.53125 C 334.230469 155.53125 330.820312 155.53125 327.304688 155.53125 C 327.140625 155.855469 326.980469 156.179688 326.8125 156.515625 C 326.8125 156.191406 326.8125 155.867188 326.8125 155.53125 C 315.769531 155.53125 304.722656 155.53125 293.34375 155.53125 C 293.34375 155.367188 293.34375 155.207031 293.34375 155.039062 C 301.574219 154.832031 309.800781 154.667969 318.03125 154.519531 Z M 318.03125 154.519531 "/>
<path style=" stroke:none;fill-rule:nonzero;fill:rgb(94.509804%,79.607844%,34.117648%);fill-opacity:1;" d="M 186.539062 183.585938 C 190.476562 185.972656 193.667969 189.671875 196.878906 192.9375 C 198.265625 194.339844 199.710938 195.648438 201.210938 196.925781 C 202.75 198.257812 204.242188 199.644531 205.734375 201.027344 C 206.023438 201.296875 206.3125 201.566406 206.613281 201.839844 C 207.304688 202.480469 207.996094 203.125 208.6875 203.765625 C 206.625 203.765625 206.140625 202.925781 204.65625 201.519531 C 204.402344 201.28125 204.148438 201.039062 203.882812 200.792969 C 203.324219 200.265625 202.765625 199.738281 202.207031 199.207031 C 201.269531 198.320312 200.332031 197.4375 199.390625 196.554688 C 199.0625 196.25 198.738281 195.945312 198.398438 195.628906 C 197.730469 195 197.058594 194.375 196.390625 193.75 C 194.785156 192.253906 193.199219 190.746094 191.644531 189.203125 C 191.363281 188.929688 191.082031 188.65625 190.792969 188.375 C 190.273438 187.867188 189.757812 187.351562 189.253906 186.832031 C 187.253906 184.90625 185.78125 184.589844 183.09375 184.570312 C 181.667969 185.707031 181.667969 185.707031 180.632812 187.03125 C 180.308594 187.03125 179.984375 187.03125 179.648438 187.03125 C 179.648438 188.492188 179.648438 189.953125 179.648438 191.460938 C 179.324219 191.296875 179 191.136719 178.664062 190.96875 C 178.519531 188.503906 178.605469 187.035156 180.140625 185.0625 C 181.882812 183.117188 184.113281 182.964844 186.539062 183.585938 Z M 186.539062 183.585938 "/>
<path style=" stroke:none;fill-rule:nonzero;fill:rgb(92.54902%,78.431374%,42.352942%);fill-opacity:1;" d="M 164.390625 155.039062 C 164.390625 155.363281 164.390625 155.6875 164.390625 156.023438 C 164.066406 156.023438 163.742188 156.023438 163.40625 156.023438 C 162.441406 157.75 161.949219 159.535156 161.4375 161.4375 C 161.761719 161.4375 162.085938 161.4375 162.421875 161.4375 C 162.421875 162.085938 162.421875 162.738281 162.421875 163.40625 C 163.234375 163.40625 164.046875 163.40625 164.882812 163.40625 C 164.71875 164.054688 164.558594 164.707031 164.390625 165.375 C 162.308594 164.632812 161.480469 163.34375 160.453125 161.4375 C 160.117188 159.417969 160.359375 158.652344 161.375 156.855469 C 162.8125 155.039062 162.8125 155.039062 164.390625 155.039062 Z M 164.390625 155.039062 "/>
<path style=" stroke:none;fill-rule:nonzero;fill:rgb(94.117647%,44.313726%,40.000001%);fill-opacity:1;" d="M 338.132812 155.039062 C 340.15625 156.832031 341.023438 157.707031 341.238281 160.421875 C 341.230469 162.277344 341.230469 162.277344 340.101562 163.40625 C 339.777344 163.570312 339.453125 163.730469 339.117188 163.898438 C 339.199219 163.621094 339.277344 163.34375 339.363281 163.058594 C 339.625 161.867188 339.65625 160.8125 339.640625 159.59375 C 339.636719 159.199219 339.632812 158.804688 339.625 158.398438 C 339.621094 158.101562 339.617188 157.804688 339.609375 157.5 C 339.285156 157.5 338.960938 157.5 338.625 157.5 C 338.625 157.175781 338.625 156.851562 338.625 156.515625 C 338.300781 156.515625 337.976562 156.515625 337.640625 156.515625 C 337.640625 156.191406 337.640625 155.867188 337.640625 155.53125 C 335.527344 155.53125 333.417969 155.53125 331.242188 155.53125 C 331.242188 155.367188 331.242188 155.207031 331.242188 155.039062 C 336.292969 154.324219 336.292969 154.324219 338.132812 155.039062 Z M 338.132812 155.039062 "/>
<path style=" stroke:none;fill-rule:nonzero;fill:rgb(83.137256%,67.843139%,46.27451%);fill-opacity:1;" d="M 244.617188 82.195312 C 244.941406 82.359375 245.265625 82.519531 245.601562 82.6875 C 245.335938 82.921875 245.066406 83.152344 244.792969 83.394531 C 241.371094 86.554688 240.28125 89.429688 239.695312 94.007812 C 239.53125 94.007812 239.371094 94.007812 239.203125 94.007812 C 238.953125 90.613281 239.097656 87.945312 241.171875 85.148438 C 242.253906 84.066406 243.386719 83.105469 244.617188 82.195312 Z M 244.617188 82.195312 "/>
<path style=" stroke:none;fill-rule:nonzero;fill:rgb(89.803922%,89.411765%,88.235295%);fill-opacity:1;" d="M 133.382812 269.71875 C 133.871094 269.960938 133.871094 269.960938 134.367188 270.210938 C 134.535156 271.320312 134.535156 271.320312 134.613281 272.734375 C 134.773438 274.992188 135.128906 276.929688 135.84375 279.070312 C 135.355469 279.234375 134.871094 279.394531 134.367188 279.5625 C 133.488281 276.207031 133.265625 273.179688 133.382812 269.71875 Z M 133.382812 269.71875 "/>
<path style=" stroke:none;fill-rule:nonzero;fill:rgb(92.54902%,76.47059%,31.764707%);fill-opacity:1;" d="M 183.09375 183.585938 C 183.09375 184.570312 183.09375 184.570312 181.925781 185.863281 C 180.632812 187.03125 180.632812 187.03125 179.648438 187.03125 C 179.648438 188.492188 179.648438 189.953125 179.648438 191.460938 C 179.324219 191.296875 179 191.136719 178.664062 190.96875 C 178.519531 188.503906 178.605469 187.035156 180.140625 185.0625 C 181.820312 183.585938 181.820312 183.585938 183.09375 183.585938 Z M 183.09375 183.585938 "/>
<path style=" stroke:none;fill-rule:nonzero;fill:rgb(91.764706%,75.686276%,32.156864%);fill-opacity:1;" d="M 211.640625 207.210938 C 213.335938 207.964844 214.6875 208.929688 216.070312 210.164062 C 216.234375 210.652344 216.394531 211.136719 216.5625 211.640625 C 215.914062 211.640625 215.261719 211.640625 214.59375 211.640625 C 213.824219 210.472656 213.824219 210.472656 213.117188 209.179688 C 212.628906 208.855469 212.144531 208.53125 211.640625 208.195312 C 211.640625 207.871094 211.640625 207.546875 211.640625 207.210938 Z M 211.640625 207.210938 "/>
</g>
</svg>
